<?xml version="1.0" standalone="no"?>
<!DOCTYPE svg PUBLIC "-//W3C//DTD SVG 20010904//EN"
 "http://www.w3.org/TR/2001/REC-SVG-20010904/DTD/svg10.dtd">
<svg version="1.0" xmlns="http://www.w3.org/2000/svg"
 width="720.000000pt" height="720.000000pt" viewBox="0 0 720.000000 720.000000"
 preserveAspectRatio="xMidYMid meet">
<metadata>
Created by potrace 1.11, written by Peter Selinger 2001-2013
</metadata>
<g transform="translate(0.000000,720.000000) scale(0.100000,-0.100000)"
fill="#000000" stroke="none">
<path d="M1679 7198 c-1 -2 -3 -261 -3 -575 l-2 -573 474 -2 473 -3 24 -70
c12 -38 62 -189 109 -335 47 -146 104 -321 126 -390 23 -69 43 -132 45 -140 2
-8 20 -64 40 -125 46 -136 46 -135 24 -165 -34 -48 -189 -291 -189 -296 0 -3
-5 -10 -11 -17 -6 -7 -48 -69 -92 -140 -45 -70 -210 -325 -367 -568 -157 -242
-289 -447 -295 -456 -5 -9 -51 -80 -101 -157 -50 -78 -115 -179 -144 -226 -30
-47 -57 -87 -60 -90 -3 -3 -12 -17 -20 -31 -8 -14 -132 -207 -275 -428 -143
-221 -267 -413 -275 -426 -27 -44 -429 -666 -555 -860 -68 -104 -130 -200
-137 -212 -7 -12 -47 -74 -88 -138 -41 -63 -80 -123 -85 -132 -6 -10 -36 -56
-66 -103 -31 -47 -68 -104 -82 -127 l-27 -42 704 0 c533 0 707 3 718 12 8 7
37 46 64 87 27 41 51 77 54 80 3 3 61 88 129 190 68 102 157 232 196 290 39
58 134 197 210 310 76 113 175 259 220 325 45 66 144 212 220 325 76 113 171
252 210 310 39 58 139 204 220 325 217 321 263 389 272 400 4 6 64 94 133 197
69 102 128 183 131 180 4 -4 71 -169 149 -367 78 -198 147 -373 154 -390 19
-44 41 -99 42 -105 1 -7 22 -61 34 -85 5 -11 30 -74 55 -140 104 -265 216
-551 227 -575 6 -14 14 -34 19 -45 10 -25 230 -581 345 -875 47 -118 89 -224
94 -235 5 -11 59 -147 120 -303 62 -155 114 -282 116 -282 3 0 20 7 40 15 19
8 38 14 42 15 8 0 18 3 292 91 107 35 200 64 207 65 7 1 54 16 105 32 93 30
273 88 483 155 61 19 184 59 275 88 91 29 170 54 175 55 6 1 62 18 125 39 63
20 174 55 245 78 72 23 131 42 132 43 2 0 -10 41 -26 90 -34 102 -184 569
-243 754 -21 69 -43 136 -48 150 -4 14 -11 33 -14 44 -4 12 -10 15 -19 9 -10
-8 -78 -31 -112 -39 -5 -1 -84 -25 -175 -54 -91 -28 -223 -70 -295 -92 -117
-36 -170 -52 -330 -102 -27 -9 -51 -16 -51 -16 -1 0 -86 213 -189 473 -102
259 -191 481 -196 492 -5 11 -45 112 -89 225 -45 113 -88 219 -96 237 -7 17
-14 34 -14 38 0 4 -7 21 -15 38 -8 18 -28 68 -45 112 -17 44 -35 89 -40 100
-5 11 -38 94 -74 185 -82 211 -454 1148 -466 1178 -6 12 -14 32 -20 45 -5 12
-23 58 -40 102 -17 44 -35 89 -39 100 -5 11 -17 40 -26 65 -9 25 -23 59 -30
75 -7 17 -117 291 -243 610 -347 876 -557 1404 -620 1562 l-57 143 -892 0
c-491 0 -894 -1 -894 -2z"/>
</g>
</svg>
